<mxfile host="65bd71144e">
    <diagram id="U5MNuPJDzMi3MlM6mRSs" name="Page-1">
        <mxGraphModel dx="1179" dy="672" grid="1" gridSize="10" guides="1" tooltips="1" connect="1" arrows="1" fold="1" page="1" pageScale="1" pageWidth="850" pageHeight="1100" math="0" shadow="0">
            <root>
                <mxCell id="0"/>
                <mxCell id="1" parent="0"/>
                <mxCell id="2" value="Bank" style="rhombus;whiteSpace=wrap;html=1;" parent="1" vertex="1">
                    <mxGeometry x="495" y="30" width="135" height="140" as="geometry"/>
                </mxCell>
                <mxCell id="4" value="BackEnd" style="rounded=1;whiteSpace=wrap;html=1;" parent="1" vertex="1">
                    <mxGeometry x="630" y="345" width="120" height="60" as="geometry"/>
                </mxCell>
                <mxCell id="5" value="" style="rounded=0;whiteSpace=wrap;html=1;" parent="1" vertex="1">
                    <mxGeometry x="10" y="70" width="400" height="515" as="geometry"/>
                </mxCell>
                <mxCell id="6" value="Product" style="rounded=0;whiteSpace=wrap;html=1;" parent="1" vertex="1">
                    <mxGeometry x="55" y="125" width="110" height="40" as="geometry"/>
                </mxCell>
                <mxCell id="7" value="t" style="rounded=0;whiteSpace=wrap;html=1;" parent="1" vertex="1">
                    <mxGeometry x="55" y="205" width="110" height="200" as="geometry"/>
                </mxCell>
                <mxCell id="8" value="Product1" style="rounded=0;whiteSpace=wrap;html=1;" parent="1" vertex="1">
                    <mxGeometry x="55" y="230" width="110" height="40" as="geometry"/>
                </mxCell>
                <mxCell id="9" value="Product2" style="rounded=0;whiteSpace=wrap;html=1;" parent="1" vertex="1">
                    <mxGeometry x="55" y="280" width="110" height="40" as="geometry"/>
                </mxCell>
                <mxCell id="10" value="Product3" style="rounded=0;whiteSpace=wrap;html=1;" parent="1" vertex="1">
                    <mxGeometry x="55" y="330" width="110" height="40" as="geometry"/>
                </mxCell>
                <mxCell id="11" value="Cart" style="whiteSpace=wrap;html=1;" parent="1" vertex="1">
                    <mxGeometry x="75" y="205" width="70" height="20" as="geometry"/>
                </mxCell>
                <mxCell id="12" value="&lt;p style=&quot;line-height: 20%;&quot;&gt;.&lt;br&gt;.&lt;br&gt;.&lt;br&gt;.&lt;br&gt;.&lt;br&gt;.&lt;br&gt;.&lt;br&gt;.&lt;br&gt;&lt;/p&gt;" style="text;strokeColor=none;align=center;fillColor=none;html=1;verticalAlign=middle;whiteSpace=wrap;rounded=0;" parent="1" vertex="1">
                    <mxGeometry x="80" y="365" width="60" height="30" as="geometry"/>
                </mxCell>
                <mxCell id="13" value="" style="rounded=0;whiteSpace=wrap;html=1;" parent="1" vertex="1">
                    <mxGeometry x="195" y="175" width="120" height="140" as="geometry"/>
                </mxCell>
                <mxCell id="14" value="Cardt Products" style="rounded=0;whiteSpace=wrap;html=1;" parent="1" vertex="1">
                    <mxGeometry x="200" y="225" width="110" height="20" as="geometry"/>
                </mxCell>
                <mxCell id="15" value="Order" style="text;html=1;strokeColor=none;fillColor=none;align=center;verticalAlign=middle;whiteSpace=wrap;rounded=0;" parent="1" vertex="1">
                    <mxGeometry x="225" y="175" width="60" height="30" as="geometry"/>
                </mxCell>
                <mxCell id="17" value="&lt;font style=&quot;font-size: 7px;&quot;&gt;PlaceOrder&lt;/font&gt;" style="rounded=1;whiteSpace=wrap;html=1;" parent="1" vertex="1">
                    <mxGeometry x="125" y="380" width="40" height="15" as="geometry"/>
                </mxCell>
                <mxCell id="20" value="&lt;font style=&quot;font-size: 15px;&quot;&gt;&lt;b&gt;FrontEnd&lt;/b&gt;&lt;/font&gt;" style="text;html=1;strokeColor=none;fillColor=none;align=center;verticalAlign=middle;whiteSpace=wrap;rounded=0;fontSize=5;strokeWidth=6;" parent="1" vertex="1">
                    <mxGeometry x="170" y="70" width="80" height="30" as="geometry"/>
                </mxCell>
                <mxCell id="21" value="" style="endArrow=classic;html=1;fontSize=15;entryX=0;entryY=0.5;entryDx=0;entryDy=0;" parent="1" source="17" target="4" edge="1">
                    <mxGeometry width="50" height="50" relative="1" as="geometry">
                        <mxPoint x="-22.5" y="383.7499999999999" as="sourcePoint"/>
                        <mxPoint x="442.5" y="371.2500000000001" as="targetPoint"/>
                        <Array as="points">
                            <mxPoint x="170" y="370"/>
                        </Array>
                    </mxGeometry>
                </mxCell>
                <mxCell id="22" value="1-Handled Place&lt;br&gt;Order Request" style="edgeLabel;html=1;align=center;verticalAlign=middle;resizable=0;points=[];fontSize=15;" parent="21" vertex="1" connectable="0">
                    <mxGeometry x="0.0978" relative="1" as="geometry">
                        <mxPoint x="80" y="2" as="offset"/>
                    </mxGeometry>
                </mxCell>
                <mxCell id="23" value="" style="endArrow=classic;html=1;fontSize=15;entryX=0.5;entryY=1;entryDx=0;entryDy=0;exitX=0.5;exitY=0;exitDx=0;exitDy=0;" parent="1" source="4" target="2" edge="1">
                    <mxGeometry width="50" height="50" relative="1" as="geometry">
                        <mxPoint x="55" y="222.5" as="sourcePoint"/>
                        <mxPoint x="472.72" y="230" as="targetPoint"/>
                        <Array as="points">
                            <mxPoint x="563" y="345"/>
                        </Array>
                    </mxGeometry>
                </mxCell>
                <mxCell id="24" value="2-Calling Bank Using Strip Requesting &lt;br&gt;for URL Session for payment with user data" style="edgeLabel;html=1;align=center;verticalAlign=middle;resizable=0;points=[];fontSize=15;" parent="23" vertex="1" connectable="0">
                    <mxGeometry x="0.0978" relative="1" as="geometry">
                        <mxPoint y="-92" as="offset"/>
                    </mxGeometry>
                </mxCell>
                <mxCell id="25" value="" style="endArrow=classic;html=1;fontSize=15;exitX=0.5;exitY=1;exitDx=0;exitDy=0;" parent="1" source="6" target="7" edge="1">
                    <mxGeometry width="50" height="50" relative="1" as="geometry">
                        <mxPoint x="-25" y="285" as="sourcePoint"/>
                        <mxPoint x="25" y="235" as="targetPoint"/>
                    </mxGeometry>
                </mxCell>
                <mxCell id="26" value="" style="endArrow=classic;html=1;exitX=1;exitY=1;exitDx=0;exitDy=0;entryX=1;entryY=0;entryDx=0;entryDy=0;" edge="1" parent="1" source="2" target="4">
                    <mxGeometry width="50" height="50" relative="1" as="geometry">
                        <mxPoint x="490" y="260" as="sourcePoint"/>
                        <mxPoint x="540" y="210" as="targetPoint"/>
                        <Array as="points">
                            <mxPoint x="750" y="135"/>
                        </Array>
                    </mxGeometry>
                </mxCell>
                <mxCell id="27" value="3-Return Url Session with&lt;br&gt;User Data (Products, user data)" style="edgeLabel;html=1;align=center;verticalAlign=middle;resizable=0;points=[];" vertex="1" connectable="0" parent="26">
                    <mxGeometry x="-0.4067" y="2" relative="1" as="geometry">
                        <mxPoint x="46" y="162" as="offset"/>
                    </mxGeometry>
                </mxCell>
                <mxCell id="28" value="" style="endArrow=classic;html=1;exitX=0.5;exitY=1;exitDx=0;exitDy=0;entryX=1;entryY=0.641;entryDx=0;entryDy=0;entryPerimeter=0;" edge="1" parent="1" source="4">
                    <mxGeometry width="50" height="50" relative="1" as="geometry">
                        <mxPoint x="410" y="360" as="sourcePoint"/>
                        <mxPoint x="360" y="507.17499999999995" as="targetPoint"/>
                        <Array as="points">
                            <mxPoint x="690" y="510"/>
                        </Array>
                    </mxGeometry>
                </mxCell>
                <mxCell id="29" value="3-Return Url Session" style="edgeLabel;html=1;align=center;verticalAlign=middle;resizable=0;points=[];" vertex="1" connectable="0" parent="28">
                    <mxGeometry x="-0.4067" y="2" relative="1" as="geometry">
                        <mxPoint x="-118" y="-2" as="offset"/>
                    </mxGeometry>
                </mxCell>
                <mxCell id="34" value="BankIframe" style="swimlane;fontStyle=0;childLayout=stackLayout;horizontal=1;startSize=30;horizontalStack=0;resizeParent=1;resizeParentMax=0;resizeLast=0;collapsible=1;marginBottom=0;whiteSpace=wrap;html=1;fontSize=12;" vertex="1" parent="1">
                    <mxGeometry x="220" y="430" width="140" height="120" as="geometry">
                        <mxRectangle x="220" y="430" width="100" height="30" as="alternateBounds"/>
                    </mxGeometry>
                </mxCell>
                <mxCell id="35" value="Item 1" style="text;strokeColor=none;fillColor=none;align=left;verticalAlign=middle;spacingLeft=4;spacingRight=4;overflow=hidden;points=[[0,0.5],[1,0.5]];portConstraint=eastwest;rotatable=0;whiteSpace=wrap;html=1;fontSize=12;" vertex="1" parent="34">
                    <mxGeometry y="30" width="140" height="30" as="geometry"/>
                </mxCell>
                <mxCell id="36" value="Item 2" style="text;strokeColor=none;fillColor=none;align=left;verticalAlign=middle;spacingLeft=4;spacingRight=4;overflow=hidden;points=[[0,0.5],[1,0.5]];portConstraint=eastwest;rotatable=0;whiteSpace=wrap;html=1;fontSize=12;" vertex="1" parent="34">
                    <mxGeometry y="60" width="140" height="30" as="geometry"/>
                </mxCell>
                <mxCell id="37" value="Item 3" style="text;strokeColor=none;fillColor=none;align=left;verticalAlign=middle;spacingLeft=4;spacingRight=4;overflow=hidden;points=[[0,0.5],[1,0.5]];portConstraint=eastwest;rotatable=0;whiteSpace=wrap;html=1;fontSize=12;" vertex="1" parent="34">
                    <mxGeometry y="90" width="140" height="30" as="geometry"/>
                </mxCell>
                <mxCell id="39" value="" style="endArrow=none;dashed=1;html=1;fontSize=12;exitX=1;exitY=0.5;exitDx=0;exitDy=0;" edge="1" parent="1" source="40">
                    <mxGeometry width="50" height="50" relative="1" as="geometry">
                        <mxPoint x="620" y="635" as="sourcePoint"/>
                        <mxPoint x="730" y="405" as="targetPoint"/>
                        <Array as="points">
                            <mxPoint x="730" y="640"/>
                        </Array>
                    </mxGeometry>
                </mxCell>
                <mxCell id="40" value="Finish Endpoint" style="ellipse;whiteSpace=wrap;html=1;fontSize=12;" vertex="1" parent="1">
                    <mxGeometry x="495" y="600" width="120" height="80" as="geometry"/>
                </mxCell>
                <mxCell id="42" value="" style="endArrow=classic;html=1;fontSize=12;exitX=0.464;exitY=1.032;exitDx=0;exitDy=0;exitPerimeter=0;entryX=0;entryY=0.5;entryDx=0;entryDy=0;" edge="1" parent="1" source="37" target="40">
                    <mxGeometry width="50" height="50" relative="1" as="geometry">
                        <mxPoint x="300" y="670" as="sourcePoint"/>
                        <mxPoint x="350" y="620" as="targetPoint"/>
                        <Array as="points">
                            <mxPoint x="285" y="640"/>
                        </Array>
                    </mxGeometry>
                </mxCell>
                <mxCell id="43" value="4-(WebHook)&lt;br&gt;if the Payment Success,&lt;br&gt;Request this endpoint,&lt;br&gt;and add all payment Details,&lt;br&gt;and make Order,&lt;br&gt;with order details(userId,producs)" style="edgeLabel;html=1;align=center;verticalAlign=middle;resizable=0;points=[];fontSize=12;" vertex="1" connectable="0" parent="42">
                    <mxGeometry x="-0.0078" y="2" relative="1" as="geometry">
                        <mxPoint x="36" y="2" as="offset"/>
                    </mxGeometry>
                </mxCell>
                <mxCell id="44" value="" style="endArrow=classic;html=1;fontSize=12;entryX=1;entryY=0.549;entryDx=0;entryDy=0;entryPerimeter=0;" edge="1" parent="1" target="13">
                    <mxGeometry width="50" height="50" relative="1" as="geometry">
                        <mxPoint x="550" y="600" as="sourcePoint"/>
                        <mxPoint x="600" y="550" as="targetPoint"/>
                        <Array as="points">
                            <mxPoint x="550" y="252"/>
                        </Array>
                    </mxGeometry>
                </mxCell>
                <mxCell id="45" value="5-Place Order to the&amp;nbsp; user Orders" style="edgeLabel;html=1;align=center;verticalAlign=middle;resizable=0;points=[];fontSize=12;" vertex="1" connectable="0" parent="44">
                    <mxGeometry x="-0.8508" y="1" relative="1" as="geometry">
                        <mxPoint x="-9" y="-107" as="offset"/>
                    </mxGeometry>
                </mxCell>
            </root>
        </mxGraphModel>
    </diagram>
</mxfile>